<svg width="16" height="16" viewBox="0 0 16 16" fill="none" xmlns="http://www.w3.org/2000/svg">
<rect width="16" height="16" fill="black" fill-opacity="0.01"/>
<path d="M9 4.12598C10.4056 4.48775 11.5122 5.59438 11.874 7H14V9H11.874C11.5122 10.4056 10.4056 11.5122 9 11.874V14H7V11.874C5.59438 11.5122 4.48775 10.4056 4.12598 9H2V7H4.12598C4.48775 5.59438 5.59438 4.48775 7 4.12598V2H9V4.12598ZM8 6C6.89543 6 6 6.89543 6 8C6 9.10457 6.89543 10 8 10C9.10457 10 10 9.10457 10 8C10 6.89543 9.10457 6 8 6Z" fill="white"/>
</svg>
