<svg width="16" height="16" viewBox="0 0 16 16" fill="none" xmlns="http://www.w3.org/2000/svg">
<rect width="16" height="16" fill="black" fill-opacity="0.01"/>
<path d="M5 11.5H2.5V4.5H5M5 11.5V13M5 11.5H7M7 11.5V13M7 11.5H9M9 11.5C9 12 9 13 9 13M9 11.5H11M11 11.5H13.5V4.5H11M11 11.5V13M5 4.5V3M5 4.5H7M7 4.5C7 4.1 7 3.33333 7 3M7 4.5H9M9 4.5C9 4.1 9 3.33333 9 3M9 4.5H11M11 4.5V3M9.5 6V10M11.5 6V10" stroke="white" stroke-width="0.8"/>
<path d="M7.5 6.5V9.5H4.5V6.5H7.5Z" fill="white" stroke="white"/>
</svg>
